<!-- Generator: Adobe Illustrator 20.1.0, SVG Export Plug-In  -->
<svg version="1.1"
	 xmlns="http://www.w3.org/2000/svg" xmlns:xlink="http://www.w3.org/1999/xlink" xmlns:a="http://ns.adobe.com/AdobeSVGViewerExtensions/3.0/"
	 x="0px" y="0px" width="44px" height="56.3px" viewBox="0 0 44 56.3" style="enable-background:new 0 0 44 56.3;"
	 xml:space="preserve">
<style type="text/css">
	.st0{opacity:0.4;}
</style>
<defs>
</defs>
<g>
	<g>
		<g>
			<polygon points="18.5,14.3 17.1,12.8 22.8,7.1 17.1,1.4 18.5,0 25.6,7.1 			"/>
		</g>
		<g>
			<path d="M22,50.1v-2c11,0,20-9,20-20c0-6.9-3.5-13.2-9.3-16.9l1.1-1.7c6.4,4.1,10.2,11,10.2,18.6C44,40.3,34.1,50.1,22,50.1z"/>
		</g>
		<g>
			<path d="M8,45.1c-5.1-4.2-8-10.4-8-17c0-12.1,9.9-22,22-22h2.2v2H22c-11,0-20,9-20,20c0,6,2.7,11.6,7.3,15.4L8,45.1z"/>
		</g>
		<g>
			<polygon points="25.5,56.3 18.4,49.1 25.5,42 26.9,43.4 21.2,49.1 26.9,54.8 			"/>
		</g>
		<g>
			<rect x="19.8" y="48.1" width="2.2" height="2"/>
		</g>
	</g>
	<g style="opacity: 0.4">
		<path d="M15,35.7c-1.6,0-3.1-0.6-4.3-1.8c-1.6-1.5-2.4-3.7-2.4-6.1c0-2,0.6-4,1.8-5.4c1.3-1.6,3.1-2.5,5-2.5c1,0,2,0.3,2.9,0.8
			c2,1.2,3.8,3.2,5.2,4.9c0.3,0.3,0.6,0.7,0.8,1c1.2,1.5,3.6,4,4.9,4.8c0.3,0.2,0.7,0.3,1,0.3c0,0,0,0,0,0c0.7,0,1.3-0.4,1.8-1
			c0.6-0.7,0.9-1.8,0.9-2.9c0-1.3-0.4-2.5-1.2-3.2c-0.5-0.4-1.2-0.9-2.1-0.6c-1.1,0.4-2.1,1.3-2.9,2l-2.7-2.9c1.1-1,2.6-2.3,4.4-2.9
			c2.2-0.7,4.5-0.2,6.2,1.5c1.6,1.5,2.4,3.7,2.4,6.1c0,2-0.6,4-1.8,5.4c-1.3,1.6-3.1,2.5-4.9,2.5l-0.2,0c-1,0-1.9-0.3-2.9-0.8
			c-2.4-1.4-5.6-5.2-5.9-5.6c-0.2-0.3-0.5-0.6-0.8-1c-1.2-1.4-2.8-3.2-4.2-4c-0.3-0.2-0.7-0.3-1-0.3c-0.7,0-1.3,0.3-1.8,1
			c-0.6,0.7-0.9,1.8-0.9,2.9c0,1.3,0.4,2.5,1.2,3.2c0.4,0.4,1.3,0.9,2.1,0.6c1.1-0.4,2.1-1.3,2.9-2l2.7,2.9c-1.1,1-2.6,2.3-4.4,2.9
			C16.3,35.6,15.7,35.7,15,35.7z"/>
	</g>
</g>
</svg>
