<!-- Generator: Adobe Illustrator 20.1.0, SVG Export Plug-In  -->
<svg version="1.1"
	 xmlns="http://www.w3.org/2000/svg" xmlns:xlink="http://www.w3.org/1999/xlink" xmlns:a="http://ns.adobe.com/AdobeSVGViewerExtensions/3.0/"
	 x="0px" y="0px" width="448.7px" height="132.9px" viewBox="0 0 448.7 132.9" style="enable-background:new 0 0 448.7 132.9;"
	 xml:space="preserve">
<style type="text/css">
	.st0{fill:#EE3524;}
</style>
<defs>
</defs>
<path class="st0" d="M42.6,0c9,0,11.9,6.5,14.3,13c1,2.7,24.5,67.1,25.2,69c0.2,0.5,0.1,1.4-0.8,1.7c-0.9,0.3-13,5.1-13.7,5.3
	s-1.4-0.1-1.7-0.8C65.6,87.5,60.6,73.5,60,72c-1.7,0-33.1,0-34.8,0c-0.6,1.6-5.7,15.6-5.9,16.2c-0.2,0.6-1,1.1-1.7,0.8
	s-13-5-13.7-5.3s-1-1.1-0.8-1.7c0.9-2.4,24-65.7,25.2-69C30.6,6.6,33.6,0,42.6,0z M1.3,115.1c-0.7,0-1.3,0.6-1.3,1.4v15
	c0,0.8,0.6,1.4,1.3,1.4h82.6c0.7,0,1.3-0.6,1.3-1.4v-15c0-0.8-0.6-1.4-1.3-1.4H1.3 M42.6,21L30.8,56.3h23.7L42.7,21H42.6z
	 M349.9,72.8c0,4-2.2,6.6-6.3,6.6c-1.6,0-2.9,0-5-0.6V66.7c0.9-0.2,2.9-0.4,5-0.4C347.8,66.6,349.9,68.5,349.9,72.8z M358.3,72.3
	c0-7.4-4.3-12.5-13.5-12.5c-2.2,0-3.8,0.2-6.2,0.8V49.9c1.5-0.2,4.1-0.4,6.9-0.4c2.7,0,6.1,0.2,9.1,0.5l0.2-6.2
	c-3.4-0.8-8.3-1.2-12.1-1.2c-3.8,0-9.6,0.9-12.4,1.7v39.4c4.3,1.6,8.6,2.3,12.9,2.3C353.1,86,358.3,80.7,358.3,72.3z M263.4,70.1
	c0,5.5-2.2,9.1-5.8,9.1c-1.5,0-2.3-0.1-4-0.6V62.1c1.9-0.9,2.9-0.9,4.4-0.9C261.6,61.1,263.4,64.1,263.4,70.1 M235.9,70.3
	c0-6,1.8-9.2,5.4-9.2c1.5,0,2.5,0,4.4,0.9v16.5c-1.7,0.6-2.5,0.6-4,0.6C237.6,79.2,235.9,75.8,235.9,70.3 M253.6,95V84.2
	c1,0.6,3,1.5,6.3,1.5c6.7,0,11.6-5.5,11.6-15.7c0-10.9-4.9-15.6-12.9-15.6c-2,0-3.4,0.2-5,1V42.7h-7.8v12.8c-1.6-0.8-3-1-5-1
	c-8,0-12.9,4.9-12.9,15.7c0,10.1,4.4,15.5,11.6,15.5c3.4,0,5.4-0.9,6.4-1.5V95H253.6 M194.1,85.2V56.4c-4.3-1.3-7.6-1.8-12-1.8
	s-7.6,0.6-11.9,1.8v14.8c0,4-0.1,5.2-0.5,6.5c-0.4,1.1-1,2.5-2.6,3.6l2.1,4.6c6.3-1.8,8.7-4.5,8.7-13.3V61.7
	c2.1-0.3,2.5-0.4,4.2-0.4s2,0.1,4.1,0.4v23.5L194.1,85.2L194.1,85.2z M290.9,78.9c-1.7,0.6-2.9,0.7-4.2,0.7c-2.8,0-4.4-1.1-4.4-4
	c0-3,2-4,5.9-4c0.9,0,1.9,0.1,2.3,0.3v2.2C290.5,76.4,290.6,77.9,290.9,78.9z M300.9,82.4c-2.1-3.2-2.6-5-2.6-9v-8.1
	c0-4.3-0.5-5.9-1.7-7.6c-1.6-2.2-4.2-3.2-9.2-3.2c-3.5,0-6.9,0.4-10.1,1.2l1.2,5.8c2.2-0.3,4.5-0.6,6.2-0.6c5.2,0,5.8,0.8,5.8,4.7
	v1.5c-1.2-0.3-2.5-0.5-4-0.5c-7.9,0-12,3.8-12,10.2c0,5.9,4.4,9.2,9.8,9.2c2,0,4.1-0.4,5.8-1.1c1-0.4,1.4-0.7,2.7-1.6
	c0.8,1.2,2.4,2.3,3,2.5L300.9,82.4z M377.6,78.9c-1.7,0.6-2.9,0.7-4.2,0.7c-2.8,0-4.4-1.1-4.4-4c0-3,2-4,5.9-4c1,0,1.9,0.1,2.3,0.3
	v2.2C377.2,76.4,377.4,77.9,377.6,78.9z M387.6,82.4c-2.1-3.2-2.6-5-2.6-9v-8.1c0-4.3-0.5-5.9-1.6-7.6c-1.6-2.2-4.3-3.2-9.2-3.2
	c-3.5,0-6.9,0.4-10.1,1.2l1.2,5.8c2.2-0.3,4.5-0.6,6.2-0.6c5.2,0,5.8,0.8,5.8,4.7v1.5c-1.1-0.3-2.5-0.5-4-0.5c-7.9,0-12,3.8-12,10.2
	c0,5.9,4.4,9.2,9.8,9.2c2,0,4.1-0.4,5.8-1.1c1-0.4,1.4-0.7,2.7-1.6c0.8,1.2,2.4,2.3,3,2.5L387.6,82.4z M216.4,74.9c0,2.9-1,5-4.8,5
	c-1.3,0-1.8,0-3.4-0.5v-8.6c2.1-0.4,2.2-0.5,3.4-0.5C215.2,70.3,216.4,72.1,216.4,74.9z M200.3,55v28.6c3.7,1.6,7.8,2.3,11.5,2.3
	c8.4,0,12.8-4.3,12.8-11.4c0-6.4-4-10.4-11.4-10.4c-1.9,0-3,0.2-5,0.7V55C208.2,55,200.3,55,200.3,55z M416.4,85.2V55.3h-7.9v11.3
	h-8.9V55.3h-7.9v29.9h7.9V73h8.9v12.2H416.4L416.4,85.2z M448.7,85.2c0,0-4.3-9.2-5.3-11.2c-1.2-2.3-2.3-4-4.7-4.6v-0.1
	c1.6-0.3,2.9-1.3,4.3-4.3c1.3-2.9,1.7-3.6,2.5-4.2c0.8-0.7,1.8-0.4,1.8-0.4l0.4-5.4c-1.1-0.2-2.4-0.2-3.7-0.1
	c-2.1,0.1-3.2,0.7-4.3,1.8c-0.8,0.8-1.4,2-2.1,3.4c-0.7,1.5-1.3,2.7-2.1,4.3c-0.8,1.6-1.1,2.3-3.2,2.3H431V55.3h-7.9v29.9h7.9V73
	h1.1c2.2,0,2.6,0.6,3.8,2.9c1.4,2.8,4,9.3,4,9.3L448.7,85.2L448.7,85.2z M155.6,85.2h9.1L151,43.4c-1.4-0.5-3.2-0.8-5.1-0.8
	c-2.1,0-2.8,0.3-4.4,0.8L127,85.2h8.7c0,0,1.2-3.7,2.6-8.2h15C154.5,81.6,155.6,85.2,155.6,85.2z M140.3,70c0,0,2.5-8.4,2.9-9.7
	c1-3.4,2.5-8.8,2.5-8.8h0.2c0,0,1.4,5.6,2.3,8.7c0.4,1.2,2.8,9.7,2.8,9.7h-10.7V70z M314.3,65.2c-2.8,0-5,2.3-5,5c0,2.8,2.2,5,5,5
	s5-2.2,5-5C319.3,67.5,317,65.2,314.3,65.2z"/>
</svg>
