<?xml version="1.0" encoding="UTF-8"?><!DOCTYPE svg PUBLIC "-//W3C//DTD SVG 1.1//EN" "http://www.w3.org/Graphics/SVG/1.1/DTD/svg11.dtd"><svg xmlns="http://www.w3.org/2000/svg"><symbol id="ico-atm" viewBox="0 0 24 24">
    <g fill="none" fill-rule="evenodd">
        <path d="M0 0h24v24H0z"/>
        <g fill="#0B1F35">
            <path d="M22 23H2V5.5C2 3.019 4.019 1 6.5 1h11C19.981 1 22 3.019 22 5.5V23zM3 22h18V5.5C21 3.57 19.43 2 17.5 2h-11C4.57 2 3 3.57 3 5.5V22z"/>
            <path d="M6 5h12v7H6V5zm7 9h5v1h-5v-1zm-7 0h2v2H6v-2zm3 0h2v2H9v-2zm-3 3h2v2H6v-2zm3 0h2v2H9v-2z" opacity=".3"/>
        </g>
    </g>
</symbol><symbol id="ico-cart" viewBox="0 0 24 24">
    <title>
        icon_category_grocery_m_black
    </title>
    <g fill="none" fill-rule="evenodd">
        <path d="M0 1h24v24H0z"/>
        <path d="M23 7h-6.034L19.6 4.366a2 2 0 0 0 0-2.825 2 2 0 0 0-2.826 0L11.314 7H1a1 1 0 0 0-1 1v3a1 1 0 0 0 1 1h1.04l1 12h17.92l1-12H23a1 1 0 0 0 1-1V8a1 1 0 0 0-1-1zm-5.52-4.752a.996.996 0 0 1 1.412 0 .999.999 0 0 1 0 1.411l-7.058 7.058a.98.98 0 0 1-.659.283h-.089a.993.993 0 0 1-.662-.283 1 1 0 0 1 0-1.412l7.056-7.057zM1.957 11H1V8h9.314l-.597.598A1.998 1.998 0 0 0 9.403 11H1.957zM20.04 23H3.96l-.917-11h8.005c.027.001.055.008.082.008.027 0 .054-.007.082-.008h9.745l-.917 11zM23 11H12.966l3-3H23v3z" fill="#0B1F35"/>
        <path fill="#0B1F35" opacity=".3" d="M8 14h2v7H8z"/>
        <path fill="#0B1F35" opacity=".3" d="M14 14h2v7h-2z"/>
    </g>
</symbol><symbol id="ico-clock" viewBox="0 0 20 20">
    <title>
        ico_clock__m__black
    </title>
    <g transform="translate(-2 -2)" fill="none" fill-rule="evenodd">
        <path d="M0 0h24v24H0z"/>
        <circle stroke="#0B1F35" cx="12" cy="12" r="9.5"/>
        <path d="M13 11.315V7.99A1 1 0 0 0 12 7c-.556 0-1 .444-1 .99v3.63a.995.995 0 0 0 .014.556c.077.435.444.78.899.82l3.79 2.189a1.003 1.003 0 0 0 1.368-.365.999.999 0 0 0-.368-1.367L13 11.315z" fill="#0B1F35" opacity=".3"/>
    </g>
</symbol><symbol id="ico-close" viewBox="0 0 24 24">
    <g fill="none" fill-rule="evenodd">
        <path d="M0 0h24v24H0z"/>
        <path fill="#0B1F35" fill-rule="nonzero" d="M12.003 12.717l7.21 7.21.714-.714-7.21-7.21L20 4.72 19.28 4l-7.283 7.283-7.21-7.21-.714.714 7.21 7.21L4 19.28l.72.72 7.283-7.283z"/>
    </g>
</symbol><symbol id="ico-contactless" viewBox="0 0 24 24">
    <title>
        icon_contactless_m_black
    </title>
    <g fill="none" fill-rule="evenodd">
        <path d="M0 0h24v24H0z"/>
        <path d="M15.635 21.59c5.084-5.298 5.084-13.883 0-19.18a.6.6 0 0 1 .866-.832c5.53 5.763 5.53 15.08 0 20.843a.6.6 0 0 1-.866-.831zm-3.79-2.931c3.531-3.678 3.531-9.641 0-13.32a.6.6 0 0 1 .867-.83c3.975 4.142 3.975 10.838 0 14.98a.6.6 0 1 1-.866-.83zm-3.789-2.138c2.396-2.497 2.396-6.546 0-9.042a.6.6 0 1 1 .866-.831c2.841 2.96 2.841 7.743 0 10.703a.6.6 0 0 1-.866-.83zm-3.789-2.305c1.173-1.222 1.173-3.211 0-4.434a.6.6 0 1 1 .866-.83c1.619 1.686 1.619 4.408 0 6.095a.6.6 0 0 1-.866-.83z" fill="#0B1F35" fill-rule="nonzero"/>
    </g>
</symbol><symbol id="ico-drop" viewBox="0 0 44 56.3">
    <style>
        .st0{opacity:.4}
    </style>
    <path d="M18.5 14.3l-1.4-1.5 5.7-5.7-5.7-5.7L18.5 0l7.1 7.1z"/>
    <path d="M22 50.1v-2c11 0 20-9 20-20 0-6.9-3.5-13.2-9.3-16.9l1.1-1.7c6.4 4.1 10.2 11 10.2 18.6 0 12.2-9.9 22-22 22z"/>
    <path d="M8 45.1c-5.1-4.2-8-10.4-8-17 0-12.1 9.9-22 22-22h2.2v2H22c-11 0-20 9-20 20 0 6 2.7 11.6 7.3 15.4L8 45.1z"/>
    <path d="M25.5 56.3l-7.1-7.2 7.1-7.1 1.4 1.4-5.7 5.7 5.7 5.7z"/>
    <path d="M19.8 48.1H22v2h-2.2z"/>
    <g opacity=".4">
        <path d="M15 35.7c-1.6 0-3.1-.6-4.3-1.8-1.6-1.5-2.4-3.7-2.4-6.1 0-2 .6-4 1.8-5.4 1.3-1.6 3.1-2.5 5-2.5 1 0 2 .3 2.9.8 2 1.2 3.8 3.2 5.2 4.9.3.3.6.7.8 1 1.2 1.5 3.6 4 4.9 4.8.3.2.7.3 1 .3.7 0 1.3-.4 1.8-1 .6-.7.9-1.8.9-2.9 0-1.3-.4-2.5-1.2-3.2-.5-.4-1.2-.9-2.1-.6-1.1.4-2.1 1.3-2.9 2l-2.7-2.9c1.1-1 2.6-2.3 4.4-2.9 2.2-.7 4.5-.2 6.2 1.5 1.6 1.5 2.4 3.7 2.4 6.1 0 2-.6 4-1.8 5.4-1.3 1.6-3.1 2.5-4.9 2.5h-.2c-1 0-1.9-.3-2.9-.8-2.4-1.4-5.6-5.2-5.9-5.6-.2-.3-.5-.6-.8-1-1.2-1.4-2.8-3.2-4.2-4-.3-.2-.7-.3-1-.3-.7 0-1.3.3-1.8 1-.6.7-.9 1.8-.9 2.9 0 1.3.4 2.5 1.2 3.2.4.4 1.3.9 2.1.6 1.1-.4 2.1-1.3 2.9-2l2.7 2.9c-1.1 1-2.6 2.3-4.4 2.9-.5.1-1.1.2-1.8.2z"/>
    </g>
</symbol><symbol id="ico-fingerprint" viewBox="0 0 24 24">
    <g fill="none" fill-rule="evenodd">
        <path d="M0 0h24v24H0z"/>
        <path d="M17.867 14.761c.045-1.325-.48-2.628-1.303-3.657-1.303-1.645-3.588-2.422-5.646-2.148-1.988.251-3.954 1.6-4.776 3.451-.526 1.212-.618 2.537-.435 3.817.343 2.331 1.555 4.457 3.246 6.08.48.457 1.211-.274.731-.732-1.417-1.37-2.468-3.085-2.88-5.028-.045-.16-.068-.32-.091-.457 0-.023 0-.069-.023-.091-.023-.138.023.114 0-.023 0-.069-.023-.16-.023-.229a6.023 6.023 0 0 1-.045-.64c0-.457.045-.891.137-1.325a4.472 4.472 0 0 1 1.188-2.217c.297-.298.526-.458.823-.686.402-.28.84-.502 1.303-.663 1.097-.366 2.24-.32 3.314.023.8.251 1.486.663 2.034 1.234.297.297.457.503.686.892.091.137.16.297.228.457.023.045.046.068.046.114.046.114-.023-.069.023.046.023.068.068.16.091.228.092.274.183.549.229.846 0 .068.023.114.023.183-.023-.183 0 0 0 .045.023.183.023.366.023.526.045.64 1.097.64 1.097-.046z" fill="#0B1F35" fill-rule="nonzero"/>
        <path d="M11.193 14.716c-.023.982.32 1.965.8 2.811.685 1.234 1.782 2.194 3.131 2.606 1.051.32 2.103.274 3.2.16.274-.023.525-.229.525-.526 0-.274-.228-.549-.525-.526-.892.092-1.783.16-2.606-.046a4.046 4.046 0 0 1-.891-.32c-.137-.068-.274-.16-.412-.228-.068-.046-.114-.092-.182-.114a.318.318 0 0 1-.092-.069c-.023-.023-.023-.023 0 0-.023-.023-.046-.023-.046-.046a4.236 4.236 0 0 1-.64-.64c-.045-.045-.09-.114-.137-.16.069.069-.068-.091-.068-.114-.092-.114-.16-.251-.252-.366a6.887 6.887 0 0 1-.365-.708c0-.023-.023-.046-.023-.069.046.115.023.046 0 .023-.023-.068-.046-.114-.069-.183-.045-.114-.068-.228-.114-.343-.069-.205-.114-.41-.16-.617 0-.022-.023-.182-.023-.068.023.114 0-.046 0-.069v-.411c0-.64-1.028-.64-1.051.023zm-8.228-5.6a.401.401 0 0 1 .091-.114.478.478 0 0 0 .091-.137c.023-.046.115-.138 0 0 .023-.046.069-.069.092-.115.297-.365.64-.731.983-1.074.525-.503.982-.868 1.577-1.257a10.8 10.8 0 0 1 2.24-1.12c.914-.32 1.874-.526 2.857-.594a11.88 11.88 0 0 1 1.28 0c.205 0 .434.023.64.023a2 2 0 0 1 .365.045c.069 0 .137.023.206.023.137.023-.114-.023.023 0 .045 0 .091 0 .114.023.686.114 1.371.274 2.034.503 1.966.686 3.726 2.08 4.983 3.794.16.229.457.343.708.183.229-.137.343-.48.183-.709-1.234-1.714-2.857-3.108-4.8-3.954a11.634 11.634 0 0 0-4.114-.96c-1.348-.068-2.742.023-4.045.389-1.691.48-3.246 1.371-4.571 2.514-.663.594-1.326 1.257-1.806 2.011-.388.572.503 1.097.869.526z" fill="#0B1F35" fill-rule="nonzero"/>
        <path d="M4.61 18.67c-.251-.617-.388-1.257-.503-1.92-.022-.137-.045-.297-.068-.434 0-.023-.023-.16 0 0 0-.046 0-.069-.023-.115 0-.091-.023-.183-.023-.274-.046-.343-.046-.686-.046-1.051 0-.366.023-.755.069-1.12 0-.046 0-.092.023-.137-.023.114 0-.023 0-.046.023-.092.023-.183.046-.274.045-.206.068-.412.137-.595.228-.822.503-1.485 1.005-2.194a6.2 6.2 0 0 1 .823-.937c.366-.343.732-.64 1.166-.914 1.074-.686 2.308-1.166 3.588-1.28a8.92 8.92 0 0 1 4.091.571c1.03.38 1.96.99 2.72 1.783.412.412.732.891 1.029 1.394.16.275.32.572.457.869.068.16.16.32.228.48-.045-.092-.022-.023 0 0 .069.16.115.32.16.48.046.137.069.274.092.411.023.069.023.16.046.252 0 .045.022.091.022.137-.022-.137 0 .068 0 .091.023.183.023.366.023.572v.548c0-.046 0-.046 0 0-.068.457-.16.709-.434 1.074l-.046.069-.114.114a.999.999 0 0 1-.183.16c-.23.176-.495.301-.777.366a2.487 2.487 0 0 1-1.851-.16 2.268 2.268 0 0 1-.983-.983 1.658 1.658 0 0 1-.114-.274.812.812 0 0 1-.046-.229c-.023-.091-.091-.274 0-.068-.046-.115 0-.275-.023-.389 0-.183-.046-.366-.068-.571-.503-2.514-4.092-3.292-5.714-1.417-1.235 1.417-.892 3.497-.229 5.097.754 1.85 2.194 3.314 3.977 4.205.571.297 1.188.526 1.806.731.64.206.914-.8.274-1.005-1.097-.366-2.217-.892-3.086-1.623-.731-.594-1.234-1.234-1.691-2.034l-.274-.549-.023-.045a.386.386 0 0 1-.046-.115 1.289 1.289 0 0 1-.091-.274 7.236 7.236 0 0 1-.275-1.006c-.022-.16-.045-.297-.068-.434 0-.046 0-.068-.023-.091-.023-.115 0 .045 0 0 0-.069-.023-.137-.023-.206-.068-.571.023-1.143.32-1.646.64-1.051 1.897-1.234 2.949-.8.388.16.754.435.982.8.275.435.252.915.32 1.44.023.137 0 .046 0 .023 0 .069.023.114.023.183.023.069.023.16.046.229.046.16.114.342.183.48.068.16.183.342.297.48.435.574 1.044.99 1.737 1.188 1.234.366 2.743.046 3.588-.96 1.029-1.234.915-3.04.435-4.503-.32-.96-.869-1.874-1.486-2.65a7.821 7.821 0 0 0-2.56-2.172c-2.606-1.372-5.737-1.554-8.41-.32-1.852.845-3.452 2.285-4.252 4.182-.617 1.463-.8 3.086-.64 4.686.091.96.274 1.92.594 2.834.023.046.046.091.046.137.114.274.343.457.64.366.137-.023.366-.343.251-.617zM5.776 3.562c.206-.137.411-.229.64-.343a2.09 2.09 0 0 0 .32-.16c.023-.023.206-.091.137-.068-.069.045.046-.023.046-.023.045-.023.091-.046.16-.069.297-.114.617-.228.937-.32a12.967 12.967 0 0 1 5.622-.434 14.19 14.19 0 0 1 4.206 1.371c.251.137.571.069.708-.183.137-.228.069-.594-.182-.708-2.286-1.143-4.846-1.76-7.429-1.6a13.852 13.852 0 0 0-4.8 1.188c-.3.13-.591.283-.868.458-.228.16-.343.457-.183.708.114.229.457.343.686.183z" fill="#0B1F35" fill-rule="nonzero"/>
    </g>
</symbol><symbol id="ico-logo" viewBox="0 0 448.7 132.9">
    <style>
        .st0{fill:#ee3524}
    </style>
    <path class="st0" d="M42.6 0c9 0 11.9 6.5 14.3 13 1 2.7 24.5 67.1 25.2 69 .2.5.1 1.4-.8 1.7-.9.3-13 5.1-13.7 5.3s-1.4-.1-1.7-.8c-.3-.7-5.3-14.7-5.9-16.2H25.2c-.6 1.6-5.7 15.6-5.9 16.2-.2.6-1 1.1-1.7.8s-13-5-13.7-5.3-1-1.1-.8-1.7c.9-2.4 24-65.7 25.2-69 2.3-6.4 5.3-13 14.3-13zM1.3 115.1c-.7 0-1.3.6-1.3 1.4v15c0 .8.6 1.4 1.3 1.4h82.6c.7 0 1.3-.6 1.3-1.4v-15c0-.8-.6-1.4-1.3-1.4H1.3M42.6 21L30.8 56.3h23.7L42.7 21h-.1zm307.3 51.8c0 4-2.2 6.6-6.3 6.6-1.6 0-2.9 0-5-.6V66.7c.9-.2 2.9-.4 5-.4 4.2.3 6.3 2.2 6.3 6.5zm8.4-.5c0-7.4-4.3-12.5-13.5-12.5-2.2 0-3.8.2-6.2.8V49.9c1.5-.2 4.1-.4 6.9-.4 2.7 0 6.1.2 9.1.5l.2-6.2c-3.4-.8-8.3-1.2-12.1-1.2-3.8 0-9.6.9-12.4 1.7v39.4c4.3 1.6 8.6 2.3 12.9 2.3 9.9 0 15.1-5.3 15.1-13.7zm-94.9-2.2c0 5.5-2.2 9.1-5.8 9.1-1.5 0-2.3-.1-4-.6V62.1c1.9-.9 2.9-.9 4.4-.9 3.6-.1 5.4 2.9 5.4 8.9m-27.5.2c0-6 1.8-9.2 5.4-9.2 1.5 0 2.5 0 4.4.9v16.5c-1.7.6-2.5.6-4 .6-4.1.1-5.8-3.3-5.8-8.8M253.6 95V84.2c1 .6 3 1.5 6.3 1.5 6.7 0 11.6-5.5 11.6-15.7 0-10.9-4.9-15.6-12.9-15.6-2 0-3.4.2-5 1V42.7h-7.8v12.8c-1.6-.8-3-1-5-1-8 0-12.9 4.9-12.9 15.7 0 10.1 4.4 15.5 11.6 15.5 3.4 0 5.4-.9 6.4-1.5V95h7.7m-59.5-9.8V56.4c-4.3-1.3-7.6-1.8-12-1.8s-7.6.6-11.9 1.8v14.8c0 4-.1 5.2-.5 6.5-.4 1.1-1 2.5-2.6 3.6l2.1 4.6c6.3-1.8 8.7-4.5 8.7-13.3V61.7c2.1-.3 2.5-.4 4.2-.4s2 .1 4.1.4v23.5h7.9zm96.8-6.3c-1.7.6-2.9.7-4.2.7-2.8 0-4.4-1.1-4.4-4 0-3 2-4 5.9-4 .9 0 1.9.1 2.3.3v2.2c0 2.3.1 3.8.4 4.8zm10 3.5c-2.1-3.2-2.6-5-2.6-9v-8.1c0-4.3-.5-5.9-1.7-7.6-1.6-2.2-4.2-3.2-9.2-3.2-3.5 0-6.9.4-10.1 1.2l1.2 5.8c2.2-.3 4.5-.6 6.2-.6 5.2 0 5.8.8 5.8 4.7v1.5c-1.2-.3-2.5-.5-4-.5-7.9 0-12 3.8-12 10.2 0 5.9 4.4 9.2 9.8 9.2 2 0 4.1-.4 5.8-1.1 1-.4 1.4-.7 2.7-1.6.8 1.2 2.4 2.3 3 2.5l5.1-3.4zm76.7-3.5c-1.7.6-2.9.7-4.2.7-2.8 0-4.4-1.1-4.4-4 0-3 2-4 5.9-4 1 0 1.9.1 2.3.3v2.2c0 2.3.2 3.8.4 4.8zm10 3.5c-2.1-3.2-2.6-5-2.6-9v-8.1c0-4.3-.5-5.9-1.6-7.6-1.6-2.2-4.3-3.2-9.2-3.2-3.5 0-6.9.4-10.1 1.2l1.2 5.8c2.2-.3 4.5-.6 6.2-.6 5.2 0 5.8.8 5.8 4.7v1.5c-1.1-.3-2.5-.5-4-.5-7.9 0-12 3.8-12 10.2 0 5.9 4.4 9.2 9.8 9.2 2 0 4.1-.4 5.8-1.1 1-.4 1.4-.7 2.7-1.6.8 1.2 2.4 2.3 3 2.5l5-3.4zm-171.2-7.5c0 2.9-1 5-4.8 5-1.3 0-1.8 0-3.4-.5v-8.6c2.1-.4 2.2-.5 3.4-.5 3.6 0 4.8 1.8 4.8 4.6zM200.3 55v28.6c3.7 1.6 7.8 2.3 11.5 2.3 8.4 0 12.8-4.3 12.8-11.4 0-6.4-4-10.4-11.4-10.4-1.9 0-3 .2-5 .7V55h-7.9zm216.1 30.2V55.3h-7.9v11.3h-8.9V55.3h-7.9v29.9h7.9V73h8.9v12.2h7.9zm32.3 0s-4.3-9.2-5.3-11.2c-1.2-2.3-2.3-4-4.7-4.6v-.1c1.6-.3 2.9-1.3 4.3-4.3 1.3-2.9 1.7-3.6 2.5-4.2.8-.7 1.8-.4 1.8-.4l.4-5.4c-1.1-.2-2.4-.2-3.7-.1-2.1.1-3.2.7-4.3 1.8-.8.8-1.4 2-2.1 3.4-.7 1.5-1.3 2.7-2.1 4.3-.8 1.6-1.1 2.3-3.2 2.3H431V55.3h-7.9v29.9h7.9V73h1.1c2.2 0 2.6.6 3.8 2.9 1.4 2.8 4 9.3 4 9.3h8.8zm-293.1 0h9.1L151 43.4c-1.4-.5-3.2-.8-5.1-.8-2.1 0-2.8.3-4.4.8L127 85.2h8.7s1.2-3.7 2.6-8.2h15c1.2 4.6 2.3 8.2 2.3 8.2zM140.3 70s2.5-8.4 2.9-9.7c1-3.4 2.5-8.8 2.5-8.8h.2s1.4 5.6 2.3 8.7c.4 1.2 2.8 9.7 2.8 9.7h-10.7v.1zm174-4.8c-2.8 0-5 2.3-5 5 0 2.8 2.2 5 5 5s5-2.2 5-5c0-2.7-2.3-5-5-5z"/>
</symbol><symbol id="ico-scroll-arrow" viewBox="0 0 52 27">
    <style>
        .st0{fill:#fff}
    </style>
    <path class="st0" d="M26 27c-.3 0-.5-.1-.7-.3l-25-25C-.1 1.3-.1.7.3.3s1-.4 1.4 0L26 24.6 50.3.3c.4-.4 1-.4 1.4 0s.4 1 0 1.4l-25 25c-.2.2-.4.3-.7.3z"/>
</symbol></svg>